HIERARCHY
ROOT Hips
{
	OFFSET 0.000000 0.000000 0.000000
	CHANNELS 6 Xposition Yposition Zposition Zrotation Yrotation Xrotation
	JOINT LeftUpLeg
	{
		OFFSET 0.103459 1.857827 10.548521
		CHANNELS 6 Xposition Yposition Zposition Zrotation Yrotation Xrotation
		JOINT LeftLeg
		{
			OFFSET 43.499979 0.000107 0.000090
			CHANNELS 6 Xposition Yposition Zposition Zrotation Yrotation Xrotation
			JOINT LeftFoot
			{
				OFFSET 42.372168 0.000034 0.000010
				CHANNELS 6 Xposition Yposition Zposition Zrotation Yrotation Xrotation
				JOINT LeftToe
				{
					OFFSET 17.299924 -0.000089 0.000018
					CHANNELS 6 Xposition Yposition Zposition Zrotation Yrotation Xrotation
					End Site
					{
						OFFSET 6.000000 0.000000 0.000000
					}
				}
			}
		}
	}
	JOINT RightUpLeg
	{
		OFFSET 0.103456 1.857863 -10.548456
		CHANNELS 6 Xposition Yposition Zposition Zrotation Yrotation Xrotation
		JOINT RightLeg
		{
			OFFSET 43.500042 -0.000002 0.000029
			CHANNELS 6 Xposition Yposition Zposition Zrotation Yrotation Xrotation
			JOINT RightFoot
			{
				OFFSET 42.372205 0.000033 0.000070
				CHANNELS 6 Xposition Yposition Zposition Zrotation Yrotation Xrotation
				JOINT RightToe
				{
					OFFSET 17.299951 -0.000065 0.000070
					CHANNELS 6 Xposition Yposition Zposition Zrotation Yrotation Xrotation
					End Site
					{
						OFFSET 6.000000 0.000000 0.000000
					}
				}
			}
		}
	}
	JOINT Spine
	{
		OFFSET 6.901935 -2.603664 0.000033
		CHANNELS 6 Xposition Yposition Zposition Zrotation Yrotation Xrotation
		JOINT Spine1
		{
			OFFSET 12.588142 0.000010 -0.000051
			CHANNELS 6 Xposition Yposition Zposition Zrotation Yrotation Xrotation
			JOINT Spine2
			{
				OFFSET 12.343166 -0.000098 0.000026
				CHANNELS 6 Xposition Yposition Zposition Zrotation Yrotation Xrotation
				JOINT Neck
				{
					OFFSET 25.832894 0.000061 0.000061
					CHANNELS 6 Xposition Yposition Zposition Zrotation Yrotation Xrotation
					JOINT Head
					{
						OFFSET 11.766657 -0.000023 -0.000040
						CHANNELS 6 Xposition Yposition Zposition Zrotation Yrotation Xrotation
						End Site
						{
							OFFSET 12.000000 0.000000 0.000000
						}
					}
				}
				JOINT LeftShoulder
				{
					OFFSET 19.745926 -1.480308 6.000100
					CHANNELS 6 Xposition Yposition Zposition Zrotation Yrotation Xrotation
					JOINT LeftArm
					{
						OFFSET 11.284141 -0.000067 -0.000035
						CHANNELS 6 Xposition Yposition Zposition Zrotation Yrotation Xrotation
						JOINT LeftForeArm
						{
							OFFSET 33.000033 0.000026 -0.000005
							CHANNELS 6 Xposition Yposition Zposition Zrotation Yrotation Xrotation
							JOINT LeftHand
							{
								OFFSET 25.200056 0.000059 -0.000020
								CHANNELS 6 Xposition Yposition Zposition Zrotation Yrotation Xrotation
								End Site
								{
									OFFSET 9.000000 0.000000 0.000000
								}
							}
						}
					}
				}
				JOINT RightShoulder
				{
					OFFSET 19.746108 -1.480276 -5.999995
					CHANNELS 6 Xposition Yposition Zposition Zrotation Yrotation Xrotation
					JOINT RightArm
					{
						OFFSET 11.284248 -0.000015 -0.000063
						CHANNELS 6 Xposition Yposition Zposition Zrotation Yrotation Xrotation
						JOINT RightForeArm
						{
							OFFSET 33.000071 0.000058 0.000097
							CHANNELS 6 Xposition Yposition Zposition Zrotation Yrotation Xrotation
							JOINT RightHand
							{
								OFFSET 25.199705 0.000114 0.000349
								CHANNELS 6 Xposition Yposition Zposition Zrotation Yrotation Xrotation
								End Site
								{
									OFFSET 9.000000 0.000000 0.000000
								}
							}
						}
					}
				}
			}
		}
	}
}
MOTION
Frames: 8
Frame Time: 0.0333333
0.0000 92.2876 0.0000 89.6203 0.6521 92.2224 0.1035 1.8578 10.5485 171.5318 -3.6683 173.0367 43.5000 0.0001 0.0001 -23.9078 2.2819 2.3408 42.3722 0.0000 0.0000 80.1027 -2.3014 -2.9277 17.2999 -0.0001 0.0000 21.4546 0.0031 -0.0001 0.1035 1.8579 -10.5485 173.8050 2.4398 -176.7686 43.5000 -0.0000 0.0000 -22.5837 3.9461 5.9449 42.3722 0.0000 0.0001 81.8024 -3.5452 3.4348 17.3000 -0.0001 0.0001 21.4546 -0.0031 0.0000 6.9019 -2.6037 0.0000 5.4772 0.2412 0.3966 12.5881 0.0000 -0.0001 0.9434 0.4744 0.7952 12.3432 -0.0001 0.0000 0.6253 0.4793 0.7923 25.8329 0.0001 0.0001 0.9662 6.3279 -2.4273 11.7667 -0.0000 -0.0000 14.9072 -14.1441 -0.3639 19.7459 -1.4803 6.0001 -64.7437 -84.2445 -117.5602 11.2841 -0.0001 -0.0000 -20.9090 77.9463 -21.9998 33.0000 0.0000 -0.0000 -15.3677 -9.5344 -1.6446 25.2001 0.0001 -0.0000 12.8595 1.5532 18.3587 19.7461 -1.4803 -6.0000 -82.6696 80.1309 99.9540 11.2842 -0.0000 -0.0001 13.9037 -82.5142 -6.9182 33.0001 0.0001 0.0001 -22.5909 14.0491 0.6000 25.1997 0.0001 0.0003 12.2982 10.3537 -7.4738
0.0000 92.2589 0.0000 89.6203 0.6912 92.2221 0.1035 1.8578 10.5485 171.4309 -3.6643 173.0368 43.5000 0.0001 0.0001 -24.0267 2.3027 2.3399 42.3722 0.0000 0.0000 80.1221 -2.3012 -2.9303 17.2999 -0.0001 0.0000 21.4546 0.0031 -0.0001 0.1035 1.8579 -10.5485 173.7040 2.4438 -176.7684 43.5000 -0.0000 0.0000 -22.7044 3.9422 5.9407 42.3722 0.0000 0.0001 81.8216 -3.5442 3.4373 17.3000 -0.0001 0.0001 21.4546 -0.0031 0.0000 6.9019 -2.6037 0.0000 5.4725 0.2410 0.3966 12.5881 0.0000 -0.0001 0.9481 0.4746 0.7953 12.3432 -0.0001 0.0000 0.6206 0.4790 0.7923 25.8329 0.0001 0.0001 0.9807 6.3289 -2.4274 11.7667 -0.0000 -0.0000 14.9072 -14.1441 -0.3639 19.7459 -1.4803 6.0001 -64.7358 -84.2444 -117.5635 11.2841 -0.0001 -0.0000 -21.3356 77.9269 -22.4417 33.0000 0.0000 -0.0000 -15.4029 -9.5309 -1.6564 25.2001 0.0001 -0.0000 12.8595 1.5532 18.3587 19.7461 -1.4803 -6.0000 -82.6669 80.1309 99.9520 11.2842 -0.0000 -0.0001 13.2245 -82.5452 -6.2315 33.0001 0.0001 0.0001 -22.6266 14.0433 0.6086 25.1997 0.0001 0.0003 12.2982 10.3537 -7.4738
0.0000 92.1740 0.0000 89.6203 0.8050 92.2214 0.1035 1.8578 10.5485 171.1372 -3.6527 173.0370 43.5000 0.0001 0.0001 -24.3724 2.3629 2.3371 42.3722 0.0000 0.0000 80.1788 -2.3007 -2.9380 17.2999 -0.0001 0.0000 21.4546 0.0031 -0.0001 0.1035 1.8579 -10.5485 173.4103 2.4553 -176.7677 43.5000 -0.0000 0.0000 -23.0557 3.9305 5.9285 42.3722 0.0000 0.0001 81.8775 -3.5412 3.4447 17.3000 -0.0001 0.0001 21.4546 -0.0031 0.0000 6.9019 -2.6037 0.0000 5.4589 0.2405 0.3964 12.5881 0.0000 -0.0001 0.9617 0.4753 0.7954 12.3432 -0.0001 0.0000 0.6069 0.4782 0.7923 25.8329 0.0001 0.0001 1.0226 6.3320 -2.4277 11.7667 -0.0000 -0.0000 14.9072 -14.1441 -0.3639 19.7459 -1.4803 6.0001 -64.7128 -84.2441 -117.5730 11.2841 -0.0001 -0.0000 -22.5683 77.8665 -23.7188 33.0000 0.0000 -0.0000 -15.5054 -9.5205 -1.6905 25.2001 0.0001 -0.0000 12.8595 1.5532 18.3587 19.7461 -1.4803 -6.0000 -82.6590 80.1309 99.9462 11.2842 -0.0000 -0.0001 11.2174 -82.6293 -4.2026 33.0001 0.0001 0.0001 -22.7304 14.0265 0.6336 25.1997 0.0001 0.0003 12.2982 10.3537 -7.4738
0.0000 92.0326 0.0000 89.6203 0.9881 92.2202 0.1035 1.8578 10.5485 170.6645 -3.6341 173.0372 43.5000 0.0001 0.0001 -24.9288 2.4599 2.3318 42.3722 0.0000 0.0000 80.2700 -2.2998 -2.9504 17.2999 -0.0001 0.0000 21.4546 0.0031 -0.0001 0.1035 1.8579 -10.5485 172.9377 2.4740 -176.7668 43.5000 -0.0000 0.0000 -23.6210 3.9117 5.9089 42.3722 0.0000 0.0001 81.9674 -3.5363 3.4567 17.3000 -0.0001 0.0001 21.4546 -0.0031 0.0000 6.9019 -2.6037 0.0000 5.4369 0.2397 0.3962 12.5881 0.0000 -0.0001 0.9837 0.4762 0.7955 12.3432 -0.0001 0.0000 0.5850 0.4769 0.7924 25.8329 0.0001 0.0001 1.0901 6.3369 -2.4282 11.7667 -0.0000 -0.0000 14.9072 -14.1441 -0.3639 19.7459 -1.4803 6.0001 -64.6757 -84.2436 -117.5882 11.2841 -0.0001 -0.0000 -24.5247 77.7574 -25.7465 33.0000 0.0000 -0.0000 -15.6705 -9.5040 -1.7455 25.2001 0.0001 -0.0000 12.8595 1.5532 18.3587 19.7461 -1.4803 -6.0000 -82.6463 80.1309 99.9368 11.2842 -0.0000 -0.0001 7.8966 -82.7450 -0.8469 33.0001 0.0001 0.0001 -22.8975 13.9995 0.6740 25.1997 0.0001 0.0003 12.2982 10.3537 -7.4738
0.0000 91.8326 0.0000 89.6203 1.2352 92.2185 0.1035 1.8578 10.5485 170.0266 -3.6089 173.0372 43.5000 0.0001 0.0001 -25.6797 2.5907 2.3232 42.3722 0.0000 0.0000 80.3931 -2.2986 -2.9671 17.2999 -0.0001 0.0000 21.4546 0.0031 -0.0001 0.1035 1.8579 -10.5485 172.2999 2.4991 -176.7658 43.5000 -0.0000 0.0000 -24.3838 3.8859 5.8829 42.3722 0.0000 0.0001 82.0887 -3.5299 3.4728 17.3000 -0.0001 0.0001 21.4546 -0.0031 0.0000 6.9019 -2.6037 0.0000 5.4073 0.2385 0.3959 12.5881 0.0000 -0.0001 1.0133 0.4776 0.7957 12.3432 -0.0001 0.0000 0.5554 0.4752 0.7924 25.8329 0.0001 0.0001 1.1812 6.3435 -2.4289 11.7667 -0.0000 -0.0000 14.9072 -14.1441 -0.3639 19.7459 -1.4803 6.0001 -64.6257 -84.2430 -117.6087 11.2841 -0.0001 -0.0000 -27.1049 77.5874 -28.4232 33.0000 0.0000 -0.0000 -15.8932 -9.4819 -1.8198 25.2001 0.0001 -0.0000 12.8595 1.5532 18.3587 19.7461 -1.4803 -6.0000 -82.6292 80.1309 99.9242 11.2842 -0.0000 -0.0001 3.2668 -82.8608 3.8300 33.0001 0.0001 0.0001 -23.1229 13.9632 0.7286 25.1997 0.0001 0.0003 12.2982 10.3537 -7.4738
0.0000 91.5707 0.0000 89.6202 1.5410 92.2165 0.1035 1.8578 10.5485 169.2373 -3.5778 173.0368 43.5000 0.0001 0.0001 -26.6091 2.7523 2.3101 42.3722 0.0000 0.0000 80.5454 -2.2971 -2.9877 17.2999 -0.0001 0.0000 21.4546 0.0031 -0.0001 0.1035 1.8579 -10.5485 171.5106 2.5302 -176.7649 43.5000 -0.0000 0.0000 -25.3277 3.8536 5.8511 42.3722 0.0000 0.0001 82.2389 -3.5219 3.4928 17.3000 -0.0001 0.0001 21.4546 -0.0031 0.0000 6.9019 -2.6037 0.0000 5.3706 0.2371 0.3955 12.5881 0.0000 -0.0001 1.0499 0.4792 0.7960 12.3432 -0.0001 0.0000 0.5188 0.4730 0.7924 25.8329 0.0001 0.0001 1.2940 6.3518 -2.4298 11.7667 -0.0000 -0.0000 14.9072 -14.1441 -0.3639 19.7459 -1.4803 6.0001 -64.5638 -84.2421 -117.6341 11.2841 -0.0001 -0.0000 -30.1919 77.3422 -31.6296 33.0000 0.0000 -0.0000 -16.1688 -9.4550 -1.9119 25.2001 0.0001 -0.0000 12.8595 1.5532 18.3587 19.7461 -1.4803 -6.0000 -82.6080 80.1309 99.9085 11.2842 -0.0000 -0.0001 -2.6225 -82.9370 9.7776 33.0001 0.0001 0.0001 -23.4018 13.9186 0.7963 25.1997 0.0001 0.0003 12.2982 10.3537 -7.4738
0.0000 91.2426 0.0000 89.6201 1.9001 92.2141 0.1035 1.8578 10.5485 168.3104 -3.5412 173.0358 43.5000 0.0001 0.0001 -27.7008 2.9418 2.2914 42.3722 0.0000 0.0000 80.7243 -2.2953 -3.0120 17.2999 -0.0001 0.0000 21.4546 0.0031 -0.0001 0.1035 1.8579 -10.5485 170.5836 2.5668 -176.7645 43.5000 -0.0000 0.0000 -26.4361 3.8150 5.8145 42.3722 0.0000 0.0001 82.4152 -3.5126 3.5162 17.3000 -0.0001 0.0001 21.4546 -0.0031 0.0000 6.9019 -2.6037 0.0000 5.3276 0.2355 0.3951 12.5881 0.0000 -0.0001 1.0930 0.4812 0.7963 12.3432 -0.0001 0.0000 0.4758 0.4705 0.7925 25.8329 0.0001 0.0001 1.4264 6.3614 -2.4308 11.7667 -0.0000 -0.0000 14.9072 -14.1441 -0.3639 19.7459 -1.4803 6.0001 -64.4912 -84.2411 -117.6639 11.2841 -0.0001 -0.0000 -33.6536 77.0081 -35.2316 33.0000 0.0000 -0.0000 -16.4925 -9.4240 -2.0201 25.2001 0.0001 -0.0000 12.8595 1.5532 18.3587 19.7461 -1.4803 -6.0000 -82.5831 80.1309 99.8901 11.2842 -0.0000 -0.0001 -9.6111 -82.9290 16.8346 33.0001 0.0001 0.0001 -23.7295 13.8666 0.8762 25.1997 0.0001 0.0003 12.2982 10.3537 -7.4738
0.0000 90.8441 0.0000 89.6200 2.3072 92.2114 0.1035 1.8578 10.5485 167.2596 -3.4998 173.0340 43.5000 0.0001 0.0001 -28.9387 3.1562 2.2658 42.3722 0.0000 0.0000 80.9271 -2.2931 -3.0394 17.2999 -0.0001 0.0000 21.4546 0.0031 -0.0001 0.1035 1.8579 -10.5485 169.5327 2.6082 -176.7647 43.5000 -0.0000 0.0000 -27.6926 3.7703 5.7739 42.3722 0.0000 0.0001 82.6151 -3.5021 3.5429 17.3000 -0.0001 0.0001 21.4546 -0.0031 0.0000 6.9019 -2.6037 0.0000 5.2788 0.2336 0.3946 12.5881 0.0000 -0.0001 1.1418 0.4833 0.7966 12.3432 -0.0001 0.0000 0.4270 0.4676 0.7925 25.8329 0.0001 0.0001 1.5765 6.3724 -2.4319 11.7667 -0.0000 -0.0000 14.9072 -14.1441 -0.3639 19.7459 -1.4803 6.0001 -64.4089 -84.2400 -117.6977 11.2841 -0.0001 -0.0000 -37.3500 76.5734 -39.0871 33.0000 0.0000 -0.0000 -16.8595 -9.3895 -2.1430 25.2001 0.0001 -0.0000 12.8595 1.5532 18.3587 19.7461 -1.4803 -6.0000 -82.5549 80.1309 99.8693 11.2842 -0.0000 -0.0001 -17.3799 -82.7934 24.6811 33.0001 0.0001 0.0001 -24.1009 13.8082 0.9670 25.1997 0.0001 0.0003 12.2982 10.3537 -7.4738
